<svg xmlns="http://www.w3.org/2000/svg" viewBox="0 0 512 512" width="512" height="512">
  <defs>
    <linearGradient id="bg2" x1="0%" y1="0%" x2="100%" y2="100%">
      <stop offset="0%" style="stop-color:#FFD1DC"/>
      <stop offset="100%" style="stop-color:#FFB6C1"/>
    </linearGradient>
  </defs>
  <rect width="512" height="512" rx="100" fill="url(#bg2)"/>
  <!-- Hello Kitty face -->
  <ellipse cx="256" cy="295" rx="145" ry="132" fill="#FFFFFF"/>
  <ellipse cx="146" cy="160" rx="58" ry="74" fill="#FFFFFF"/>
  <ellipse cx="366" cy="160" rx="58" ry="74" fill="#FFFFFF"/>
  <ellipse cx="207" cy="268" rx="13" ry="16" fill="#333"/>
  <ellipse cx="305" cy="268" rx="13" ry="16" fill="#333"/>
  <ellipse cx="256" cy="298" rx="10" ry="8" fill="#FFB6C1"/>
  <path d="M256 306 L256 328 M234 328 Q256 350 278 328" stroke="#333" stroke-width="4" fill="none" stroke-linecap="round"/>
  <line x1="153" y1="286" x2="93" y2="270" stroke="#333" stroke-width="3"/>
  <line x1="153" y1="302" x2="93" y2="314" stroke="#333" stroke-width="3"/>
  <line x1="359" y1="286" x2="419" y2="270" stroke="#333" stroke-width="3"/>
  <line x1="359" y1="302" x2="419" y2="314" stroke="#333" stroke-width="3"/>
  <ellipse cx="146" cy="156" rx="42" ry="32" fill="#FF69B4"/>
  <circle cx="146" cy="156" r="10" fill="#E91E63"/>
  <ellipse cx="112" cy="148" rx="26" ry="18" fill="#FF69B4" transform="rotate(-20 112 148)"/>
  <ellipse cx="180" cy="148" rx="26" ry="18" fill="#FF69B4" transform="rotate(20 180 148)"/>
  <text x="256" y="468" text-anchor="middle" font-family="sans-serif" font-size="38" font-weight="bold" fill="#FFFFFF">备考工作台</text>
</svg>
